<svg width="32" height="25" viewBox="0 0 32 25" fill="none" xmlns="http://www.w3.org/2000/svg">
<path d="M28.9341 2.77403H23.1856V0.500977H8.81437V2.77403H3.06587C2.25275 2.77403 1.47293 3.09334 0.897972 3.66171C0.32301 4.23008 0 5.00096 0 5.80476V21.5267C0 22.3305 0.32301 23.1014 0.897972 23.6698C1.47293 24.2381 2.25275 24.5574 3.06587 24.5574H28.9341C29.7473 24.5574 30.5271 24.2381 31.102 23.6698C31.677 23.1014 32 22.3305 32 21.5267V5.80476C32 5.00096 31.677 4.23008 31.102 3.66171C30.5271 3.09334 29.7473 2.77403 28.9341 2.77403ZM15.9992 22.8527C10.8762 22.8527 6.70965 18.7309 6.70965 13.6665C6.70965 8.60213 10.8762 4.48033 15.9992 4.48033C21.1223 4.48033 25.2919 8.60213 25.2919 13.6665C25.2919 18.7309 21.1223 22.8496 15.9992 22.8496V22.8527ZM15.9992 7.50955C15.1812 7.50965 14.3712 7.66902 13.6155 7.97857C12.8598 8.28812 12.1732 8.74177 11.5948 9.31364C11.0165 9.8855 10.5577 10.5644 10.2448 11.3115C9.93184 12.0586 9.77082 12.8594 9.77092 13.668C9.77102 14.4766 9.93224 15.2774 10.2454 16.0244C10.5585 16.7715 11.0174 17.4502 11.5959 18.0219C12.1744 18.5937 12.8612 19.0472 13.6169 19.3565C14.3727 19.6659 15.1828 19.8251 16.0008 19.825C17.653 19.8248 19.2375 19.1757 20.4057 18.0206C21.5739 16.8656 22.23 15.2991 22.2298 13.6657C22.2296 12.0324 21.5731 10.4661 20.4046 9.31127C19.2362 8.15648 17.6515 7.50784 15.9992 7.50804V7.50955Z" fill="#969696"/>
</svg>
