<svg width="27" height="27" viewBox="0 0 27 27" fill="none" xmlns="http://www.w3.org/2000/svg">
<path fill-rule="evenodd" clip-rule="evenodd" d="M16.962 1.72225C18.0647 0.619513 19.5604 0 21.1199 0C22.6794 0 24.175 0.619513 25.2777 1.72225C26.3805 2.82499 27 4.32063 27 5.88014C27 7.43965 26.3805 8.93528 25.2777 10.038L13.3654 21.9503C12.6848 22.631 12.2855 23.0303 11.8384 23.3782C11.3126 23.7901 10.7475 24.1396 10.1431 24.4267C9.63325 24.6691 9.09578 24.8487 8.18409 25.1526L3.99983 26.5465L2.9927 26.883C2.59214 27.0168 2.16225 27.0362 1.75123 26.9393C1.34022 26.8424 0.964338 26.6329 0.665735 26.3343C0.367132 26.0357 0.157618 25.6598 0.0606876 25.2488C-0.0362426 24.8378 -0.0167559 24.4079 0.116962 24.0073L1.84743 18.8172C2.15132 17.9042 2.3309 17.3667 2.57327 16.8556C2.86126 16.2529 3.21078 15.6878 3.62184 15.1603C3.96844 14.7158 4.36903 14.3152 5.04966 13.6346L16.962 1.72225ZM3.95588 24.5774L7.52355 23.3869C8.51687 23.0554 8.93881 22.9135 9.33187 22.7264C9.81074 22.497 10.2599 22.2195 10.6793 21.8938C11.0221 21.6251 11.3386 21.3124 12.0795 20.5715L21.5858 11.0652C20.2824 10.6034 19.0993 9.85499 18.1236 8.87517C17.1447 7.89921 16.3971 6.71611 15.936 5.41299L6.42976 14.9192C5.68885 15.6589 5.37491 15.9741 5.10743 16.3182C4.78093 16.7368 4.5034 17.1859 4.27485 17.6656C4.08774 18.0587 3.94583 18.4806 3.61431 19.4739L2.42383 23.0441L3.95588 24.5774ZM17.4618 3.8847C17.5057 4.10446 17.5773 4.40334 17.6991 4.75119C18.0665 5.80234 18.6676 6.75641 19.4572 7.54153C20.242 8.33096 21.1956 8.93208 22.2463 9.29962C22.5954 9.42143 22.8943 9.49301 23.114 9.53696L23.9454 8.70564C24.6904 7.95537 25.1077 6.94038 25.1059 5.88303C25.104 4.82568 24.6832 3.81217 23.9355 3.0645C23.1878 2.31684 22.1743 1.89599 21.117 1.89414C20.0596 1.89229 19.0446 2.30959 18.2944 3.05463L17.4618 3.8847Z" fill="#5061FF"/>
</svg>
