<svg width="39" height="27" viewBox="0 0 39 27" fill="none" xmlns="http://www.w3.org/2000/svg">
<path fill-rule="evenodd" clip-rule="evenodd" d="M12.675 13.5C16.4453 13.5 19.5 10.4789 19.5 6.75C19.5 3.02111 16.4453 0 12.675 0C8.90468 0 5.85 3.02111 5.85 6.75C5.85 10.4789 8.90468 13.5 12.675 13.5ZM17.55 6.75C17.55 9.41432 15.3689 11.5714 12.675 11.5714C9.98108 11.5714 7.8 9.41432 7.8 6.75C7.8 4.08568 9.98108 1.92857 12.675 1.92857C15.3689 1.92857 17.55 4.08568 17.55 6.75ZM0 27V21.6C0 17.496 8.44448 15.4286 12.675 15.4286C15.4888 15.4286 20.1679 16.3437 22.9856 18.1643C24.9941 17.6271 27.1966 17.3571 28.7625 17.3571C30.574 17.3571 33.0047 17.7178 35.0122 18.4468C36.0126 18.8113 36.971 19.2896 37.6954 19.9086C38.4257 20.5325 39 21.3763 39 22.4351V27H0ZM1.95 21.6C1.95 21.2943 2.09235 20.8758 2.69685 20.332C3.31402 19.7765 4.26367 19.2385 5.46585 18.7698C7.87507 17.8296 10.8001 17.3571 12.675 17.3571C14.5499 17.3571 17.4759 17.8296 19.8832 18.7698C21.0863 19.2385 22.036 19.7765 22.6522 20.332C23.2577 20.8758 23.4 21.2943 23.4 21.6V25.0714H1.95V21.6ZM24.7192 19.7389C26.1943 19.4371 27.6734 19.2857 28.7625 19.2857C30.3683 19.2857 32.5679 19.6136 34.3395 20.2577C35.2258 20.5798 35.9424 20.9597 36.4211 21.3686C36.894 21.7726 37.05 22.1275 37.05 22.436V25.0714H25.35V21.6C25.35 20.925 25.1209 20.303 24.7192 19.7389ZM34.125 10.125C34.125 13.0555 31.7255 15.4286 28.7625 15.4286C27.3403 15.4286 25.9763 14.8698 24.9706 13.8752C23.965 12.8806 23.4 11.5316 23.4 10.125C23.4 7.19454 25.7995 4.82143 28.7625 4.82143C31.7255 4.82143 34.125 7.19454 34.125 10.125ZM28.7625 13.5C30.6481 13.5 32.175 11.9899 32.175 10.125C32.175 8.26007 30.6481 6.75 28.7625 6.75C27.8574 6.75 26.9895 7.10558 26.3495 7.73851C25.7095 8.37145 25.35 9.22989 25.35 10.125C25.35 11.9899 26.8769 13.5 28.7625 13.5Z" fill="#969696"/>
</svg>
