<svg width="25" height="27" viewBox="0 0 25 27" fill="none" xmlns="http://www.w3.org/2000/svg">
<path d="M1.78571 25.245H8.37857V16.3351C8.37857 15.9338 8.51726 15.5975 8.79464 15.326C9.07083 15.0534 9.4131 14.9171 9.82143 14.9171H15.1786C15.5869 14.9171 15.9298 15.0534 16.2071 15.326C16.4833 15.5975 16.6214 15.9338 16.6214 16.3351V25.245H23.2143V9.99096C23.2143 9.81079 23.1744 9.64699 23.0946 9.49958C23.0149 9.35216 22.906 9.22346 22.7679 9.11349L13.1536 1.99188C12.9702 1.8351 12.7524 1.75671 12.5 1.75671C12.2476 1.75671 12.0304 1.8351 11.8482 1.99188L2.23214 9.11349C2.09524 9.2258 1.98631 9.3545 1.90536 9.49958C1.8244 9.64465 1.78452 9.80845 1.78571 9.99096V25.245ZM0 25.245V9.99096C0 9.5417 0.102381 9.11641 0.307143 8.71511C0.511905 8.31381 0.794047 7.9833 1.15357 7.72356L10.7696 0.566852C11.2732 0.188951 11.8482 0 12.4946 0C13.1411 0 13.7196 0.188951 14.2304 0.566852L23.8464 7.72181C24.2071 7.98154 24.4893 8.31264 24.6929 8.71511C24.8976 9.11641 25 9.5417 25 9.99096V25.245C25 25.7154 24.822 26.1254 24.4661 26.4753C24.1101 26.8251 23.6929 27 23.2143 27H16.2786C15.869 27 15.5262 26.8643 15.25 26.5928C14.9738 26.3202 14.8357 25.9833 14.8357 25.582V16.6738H10.1643V25.582C10.1643 25.9845 10.0262 26.3214 9.75 26.5928C9.47381 26.8643 9.13155 27 8.72321 27H1.78571C1.30714 27 0.889881 26.8251 0.533928 26.4753C0.177976 26.1254 0 25.7154 0 25.245Z" fill="#969696"/>
</svg>
