<svg width="17" height="17" viewBox="0 0 17 17" fill="none" xmlns="http://www.w3.org/2000/svg">
<path d="M14.9052 5.50002C15.67 4.02345 16.0515 3.2847 15.9944 2.67813C15.9697 2.41701 15.8961 2.16457 15.7784 1.93718C15.6607 1.70979 15.5015 1.51252 15.3111 1.35813C14.8691 1 14.1051 1 12.5764 1H4.42189C2.89485 1 2.13091 1 1.6897 1.35813C1.49915 1.51243 1.33978 1.70966 1.22194 1.93706C1.10409 2.16445 1.03038 2.41693 1.0056 2.67813C0.948451 3.2847 1.33 4.02345 2.09478 5.50002L6.17079 13.3751C6.93473 14.8516 7.31712 15.5904 7.81632 15.8379C8.03151 15.9448 8.26444 16 8.5 16C8.73556 16 8.96849 15.9448 9.18368 15.8379C9.68204 15.5904 10.0644 14.8516 10.8284 13.3769L14.9052 5.50002Z" stroke="#5773FF" stroke-width="2" stroke-linecap="round" stroke-linejoin="round"/>
</svg>
