<svg width="27" height="27" viewBox="0 0 27 27" fill="none" xmlns="http://www.w3.org/2000/svg">
<path fill-rule="evenodd" clip-rule="evenodd" d="M18.409 9.81818C18.409 11.1202 17.8918 12.3688 16.9712 13.2894C16.0505 14.2101 14.8019 14.7273 13.4999 14.7273C12.1979 14.7273 10.9493 14.2101 10.0287 13.2894C9.10803 12.3688 8.59082 11.1202 8.59082 9.81818C8.59082 8.51621 9.10803 7.26756 10.0287 6.34693C10.9493 5.42629 12.1979 4.90909 13.4999 4.90909C14.8019 4.90909 16.0505 5.42629 16.9712 6.34693C17.8918 7.26756 18.409 8.51621 18.409 9.81818ZM15.9545 9.81818C15.9545 10.4692 15.6959 11.0935 15.2355 11.5538C14.7752 12.0141 14.1509 12.2727 13.4999 12.2727C12.8489 12.2727 12.2246 12.0141 11.7643 11.5538C11.304 11.0935 11.0454 10.4692 11.0454 9.81818C11.0454 9.16719 11.304 8.54287 11.7643 8.08255C12.2246 7.62224 12.8489 7.36363 13.4999 7.36363C14.1509 7.36363 14.7752 7.62224 15.2355 8.08255C15.6959 8.54287 15.9545 9.16719 15.9545 9.81818Z" fill="#969696"/>
<path fill-rule="evenodd" clip-rule="evenodd" d="M13.5 0C6.04432 0 0 6.04432 0 13.5C0 20.9557 6.04432 27 13.5 27C20.9557 27 27 20.9557 27 13.5C27 6.04432 20.9557 0 13.5 0ZM2.45455 13.5C2.45455 16.065 3.32959 18.4263 4.79618 20.3015C5.82641 18.9492 7.15519 17.8533 8.67883 17.0993C10.2025 16.3452 11.8798 15.9534 13.5798 15.9545C15.2579 15.9526 16.9144 16.3339 18.4228 17.0694C19.9311 17.8048 21.2517 18.8751 22.2836 20.1985C23.347 18.8038 24.0629 17.1759 24.3723 15.4496C24.6816 13.7233 24.5754 11.9482 24.0625 10.271C23.5496 8.5939 22.6447 7.06301 21.4226 5.80505C20.2006 4.54708 18.6966 3.59819 17.035 3.0369C15.3734 2.4756 13.6021 2.31804 11.8676 2.57724C10.133 2.83644 8.48511 3.50496 7.06022 4.52747C5.63533 5.54999 4.4744 6.89711 3.67351 8.45738C2.87261 10.0176 2.45477 11.7462 2.45455 13.5ZM13.5 24.5455C10.9643 24.5496 8.50518 23.6772 6.53891 22.0762C7.33027 20.9429 8.38374 20.0177 9.60964 19.3792C10.8355 18.7407 12.1976 18.4079 13.5798 18.4091C14.9447 18.4079 16.2902 18.7324 17.5046 19.3557C18.7189 19.979 19.767 20.883 20.5617 21.9927C18.5803 23.6459 16.0805 24.5495 13.5 24.5455Z" fill="#969696"/>
</svg>
