<svg width="19" height="21" viewBox="0 0 19 21" fill="none" xmlns="http://www.w3.org/2000/svg">
<mask id="path-1-inside-1_467_2076" fill="white">
<path d="M9.21214 1.90248C8.85257 1.90248 8.49651 1.97016 8.16431 2.10167C7.83211 2.23318 7.53026 2.42593 7.276 2.66892C7.02175 2.91191 6.82006 3.20038 6.68246 3.51786C6.54485 3.83535 6.47403 4.17562 6.47403 4.51926C6.47403 4.8629 6.54485 5.20318 6.68246 5.52066C6.82006 5.83814 7.02175 6.12662 7.276 6.36961C7.53026 6.6126 7.83211 6.80535 8.16431 6.93685C8.49651 7.06836 8.85257 7.13604 9.21214 7.13604C9.93833 7.13604 10.6348 6.86035 11.1483 6.36961C11.6618 5.87886 11.9502 5.21328 11.9502 4.51926C11.9502 3.82525 11.6618 3.15966 11.1483 2.66892C10.6348 2.17818 9.93833 1.90248 9.21214 1.90248ZM4.64862 4.51926C4.64862 3.36257 5.12942 2.25326 5.98525 1.43535C6.84107 0.617452 8.00182 0.157959 9.21214 0.157959C10.4225 0.157959 11.5832 0.617452 12.439 1.43535C13.2949 2.25326 13.7757 3.36257 13.7757 4.51926C13.7757 5.67595 13.2949 6.78527 12.439 7.60317C11.5832 8.42107 10.4225 8.88056 9.21214 8.88056C8.00182 8.88056 6.84107 8.42107 5.98525 7.60317C5.12942 6.78527 4.64862 5.67595 4.64862 4.51926ZM5.94344 11.2868C6.10408 11.4008 6.31096 11.5346 6.558 11.6671C7.18229 12.0044 8.09742 12.3533 9.21092 12.3533C10.3244 12.3533 11.2408 12.0044 11.8651 11.6671C12.1121 11.5346 12.319 11.4008 12.4796 11.2868C12.7084 11.345 12.9352 11.4093 13.1599 11.4799L14.3281 11.8463C15.2043 12.1219 15.8664 12.7906 16.1024 13.6175L16.5856 16.9484C16.6768 17.5811 16.33 18.0405 15.8481 18.1498C14.574 18.4405 12.4261 18.7662 9.21214 18.7662C5.99821 18.7662 3.84909 18.4405 2.57496 18.1498C2.09427 18.0405 1.74744 17.5811 1.8375 16.9484L2.32062 13.6175C2.44067 13.2052 2.66562 12.8277 2.97542 12.5186C3.28522 12.2095 3.67023 11.9786 4.09613 11.8463L5.26439 11.4799C5.48831 11.4101 5.71466 11.3458 5.94344 11.2868ZM6.80747 9.71096L6.45334 9.37717L5.96413 9.48417C5.53739 9.57721 5.1139 9.69002 4.69365 9.82261L3.52539 10.189C2.79963 10.4144 2.14529 10.8116 1.62317 11.3435C1.10106 11.8754 0.728123 12.5248 0.539023 13.2314L0.526854 13.2779L0.030343 16.7088C-0.165584 18.0626 0.592568 19.4919 2.15268 19.8466C3.5765 20.1711 5.86678 20.5107 9.21092 20.5107C12.5563 20.5107 14.8466 20.1711 16.2704 19.8478C17.8305 19.4919 18.5899 18.0626 18.3939 16.71L17.8962 13.2791L17.884 13.2326C17.695 12.5256 17.322 11.8759 16.7996 11.3437C16.2773 10.8116 15.6226 10.4144 14.8965 10.189L13.7294 9.82261C13.31 9.6908 12.8865 9.57837 12.4589 9.48533L11.9697 9.37717L11.6168 9.70979L11.6156 9.71096C11.5685 9.75192 11.5198 9.79111 11.4696 9.82842C11.3127 9.94755 11.1458 10.0541 10.9706 10.1471C10.4356 10.4426 9.83003 10.6016 9.21214 10.6088C8.59424 10.6016 7.98868 10.4426 7.45366 10.1471C7.22376 10.023 7.00644 9.87685 6.80747 9.71096Z"/>
</mask>
<path d="M9.21214 1.90248C8.85257 1.90248 8.49651 1.97016 8.16431 2.10167C7.83211 2.23318 7.53026 2.42593 7.276 2.66892C7.02175 2.91191 6.82006 3.20038 6.68246 3.51786C6.54485 3.83535 6.47403 4.17562 6.47403 4.51926C6.47403 4.8629 6.54485 5.20318 6.68246 5.52066C6.82006 5.83814 7.02175 6.12662 7.276 6.36961C7.53026 6.6126 7.83211 6.80535 8.16431 6.93685C8.49651 7.06836 8.85257 7.13604 9.21214 7.13604C9.93833 7.13604 10.6348 6.86035 11.1483 6.36961C11.6618 5.87886 11.9502 5.21328 11.9502 4.51926C11.9502 3.82525 11.6618 3.15966 11.1483 2.66892C10.6348 2.17818 9.93833 1.90248 9.21214 1.90248ZM4.64862 4.51926C4.64862 3.36257 5.12942 2.25326 5.98525 1.43535C6.84107 0.617452 8.00182 0.157959 9.21214 0.157959C10.4225 0.157959 11.5832 0.617452 12.439 1.43535C13.2949 2.25326 13.7757 3.36257 13.7757 4.51926C13.7757 5.67595 13.2949 6.78527 12.439 7.60317C11.5832 8.42107 10.4225 8.88056 9.21214 8.88056C8.00182 8.88056 6.84107 8.42107 5.98525 7.60317C5.12942 6.78527 4.64862 5.67595 4.64862 4.51926ZM5.94344 11.2868C6.10408 11.4008 6.31096 11.5346 6.558 11.6671C7.18229 12.0044 8.09742 12.3533 9.21092 12.3533C10.3244 12.3533 11.2408 12.0044 11.8651 11.6671C12.1121 11.5346 12.319 11.4008 12.4796 11.2868C12.7084 11.345 12.9352 11.4093 13.1599 11.4799L14.3281 11.8463C15.2043 12.1219 15.8664 12.7906 16.1024 13.6175L16.5856 16.9484C16.6768 17.5811 16.33 18.0405 15.8481 18.1498C14.574 18.4405 12.4261 18.7662 9.21214 18.7662C5.99821 18.7662 3.84909 18.4405 2.57496 18.1498C2.09427 18.0405 1.74744 17.5811 1.8375 16.9484L2.32062 13.6175C2.44067 13.2052 2.66562 12.8277 2.97542 12.5186C3.28522 12.2095 3.67023 11.9786 4.09613 11.8463L5.26439 11.4799C5.48831 11.4101 5.71466 11.3458 5.94344 11.2868ZM6.80747 9.71096L6.45334 9.37717L5.96413 9.48417C5.53739 9.57721 5.1139 9.69002 4.69365 9.82261L3.52539 10.189C2.79963 10.4144 2.14529 10.8116 1.62317 11.3435C1.10106 11.8754 0.728123 12.5248 0.539023 13.2314L0.526854 13.2779L0.030343 16.7088C-0.165584 18.0626 0.592568 19.4919 2.15268 19.8466C3.5765 20.1711 5.86678 20.5107 9.21092 20.5107C12.5563 20.5107 14.8466 20.1711 16.2704 19.8478C17.8305 19.4919 18.5899 18.0626 18.3939 16.71L17.8962 13.2791L17.884 13.2326C17.695 12.5256 17.322 11.8759 16.7996 11.3437C16.2773 10.8116 15.6226 10.4144 14.8965 10.189L13.7294 9.82261C13.31 9.6908 12.8865 9.57837 12.4589 9.48533L11.9697 9.37717L11.6168 9.70979L11.6156 9.71096C11.5685 9.75192 11.5198 9.79111 11.4696 9.82842C11.3127 9.94755 11.1458 10.0541 10.9706 10.1471C10.4356 10.4426 9.83003 10.6016 9.21214 10.6088C8.59424 10.6016 7.98868 10.4426 7.45366 10.1471C7.22376 10.023 7.00644 9.87685 6.80747 9.71096Z" fill="white"/>
<path d="M9.21214 1.90248V21.9025V1.90248ZM9.21214 7.13604L9.21214 27.136L9.21214 7.13604ZM11.9502 4.51926H31.9503H11.9502ZM9.21214 0.157959V-19.842V0.157959ZM13.7757 4.51926H33.7757H13.7757ZM5.94344 11.2868L17.5167 -5.02446L9.9453 -10.3966L0.955018 -8.08106L5.94344 11.2868ZM6.558 11.6671L16.0644 -5.9291L16.0401 -5.94222L16.0158 -5.95527L6.558 11.6671ZM11.8651 11.6671L2.40725 -5.95527L2.38293 -5.94222L2.35864 -5.9291L11.8651 11.6671ZM12.4796 11.2868L17.4064 -8.09683L8.44626 -10.3743L0.906314 -5.02446L12.4796 11.2868ZM13.1599 11.4799L7.16896 30.5615L7.17551 30.5636L13.1599 11.4799ZM14.3281 11.8463L20.3298 -7.23201L20.3212 -7.23473L20.3125 -7.23744L14.3281 11.8463ZM16.1024 13.6175L35.8953 10.7467L35.7026 9.4179L35.334 8.1268L16.1024 13.6175ZM16.5856 16.9484L36.3806 14.0928L36.3796 14.0852L36.3785 14.0776L16.5856 16.9484ZM15.8481 18.1498L11.4234 -1.35463L11.411 -1.35181L11.3985 -1.34897L15.8481 18.1498ZM2.57496 18.1498L7.02452 -1.34897L7.01741 -1.35059L7.01029 -1.35221L2.57496 18.1498ZM1.8375 16.9484L-17.9554 14.0775L-17.9592 14.1038L-17.9629 14.1301L1.8375 16.9484ZM2.32062 13.6175L-16.8821 8.02686L-17.272 9.36619L-17.4723 10.7467L2.32062 13.6175ZM4.09613 11.8463L10.0297 30.9458L10.0551 30.9379L10.0805 30.9299L4.09613 11.8463ZM5.26439 11.4799L-0.686105 -7.61438L-0.703051 -7.6091L-0.719987 -7.60379L5.26439 11.4799ZM6.80747 9.71096L-6.91042 24.265L-6.46773 24.6822L-6.00051 25.0718L6.80747 9.71096ZM6.45334 9.37717L20.1712 -5.17685L12.4908 -12.4161L2.18005 -10.161L6.45334 9.37717ZM5.96413 9.48417L10.2246 29.0251L10.2374 29.0223L5.96413 9.48417ZM4.69365 9.82261L10.678 28.9063L10.6945 28.9011L10.711 28.8959L4.69365 9.82261ZM3.52539 10.189L9.45876 29.2886L9.48427 29.2806L9.50975 29.2726L3.52539 10.189ZM0.539023 13.2314L-18.781 8.06082L-18.7956 8.11525L-18.8099 8.16977L0.539023 13.2314ZM0.526854 13.2779L-18.822 8.21629L-19.1062 9.30237L-19.2669 10.4134L0.526854 13.2779ZM0.030343 16.7088L19.8241 19.5736L19.8241 19.5733L0.030343 16.7088ZM2.15268 19.8466L6.59664 0.346591L6.58686 0.344367L2.15268 19.8466ZM16.2704 19.8478L20.6992 39.3513L20.7088 39.3491L20.7184 39.3469L16.2704 19.8478ZM18.3939 16.71L38.1874 13.8428L38.1867 13.8386L18.3939 16.71ZM17.8962 13.2791L37.689 10.4077L37.5283 9.30015L37.2451 8.21746L17.8962 13.2791ZM17.884 13.2326L37.2329 8.17094L37.2192 8.11847L37.2052 8.06608L17.884 13.2326ZM14.8965 10.189L8.90641 29.2709L8.93684 29.2804L8.96731 29.2899L14.8965 10.189ZM13.7294 9.82261L7.73351 28.9027L7.73937 28.9045L13.7294 9.82261ZM12.4589 9.48533L8.14134 29.0137L8.17375 29.0209L8.20618 29.028L12.4589 9.48533ZM11.9697 9.37717L16.2873 -10.1512L5.9537 -12.4359L-1.74785 -5.17715L11.9697 9.37717ZM11.6168 9.70979L-2.10076 -4.84453L-2.15122 -4.79697L-2.20135 -4.74906L11.6168 9.70979ZM11.6156 9.71096L24.7483 24.7951L25.0983 24.4904L25.4338 24.1698L11.6156 9.71096ZM11.4696 9.82842L-0.451668 -6.23036L-0.538918 -6.16559L-0.62546 -6.09987L11.4696 9.82842ZM10.9706 10.1471L1.59615 -7.51981L1.44786 -7.44113L1.30091 -7.35997L10.9706 10.1471ZM9.21214 10.6088L8.9788 30.6074L9.21214 30.6102L9.44548 30.6074L9.21214 10.6088ZM7.45366 10.1471L17.1234 -7.35997L17.0388 -7.40665L16.9539 -7.45252L7.45366 10.1471ZM9.21214 1.90248L9.21214 -18.0975C6.34879 -18.0975 3.4939 -17.5595 0.802923 -16.4943L8.16431 2.10167L15.5257 20.6976C13.4991 21.4999 11.3563 21.9025 9.21214 21.9025V1.90248ZM8.16431 2.10167L0.802923 -16.4943C-1.88923 -15.4286 -4.39255 -13.8443 -6.54216 -11.7899L7.276 2.66892L21.0942 17.1278C19.4531 18.6961 17.5534 19.8949 15.5257 20.6976L8.16431 2.10167ZM7.276 2.66892L-6.54216 -11.7899C-8.6937 -9.73373 -10.4512 -7.2432 -11.6681 -4.43561L6.68246 3.51786L25.033 11.4713C24.0913 13.644 22.7372 15.5575 21.0942 17.1278L7.276 2.66892ZM6.68246 3.51786L-11.6681 -4.43561C-12.886 -1.62562 -13.526 1.42008 -13.526 4.51926H6.47403H26.474C26.474 6.93116 25.9757 9.29631 25.033 11.4713L6.68246 3.51786ZM6.47403 4.51926H-13.526C-13.526 7.61844 -12.886 10.6641 -11.6681 13.4741L6.68246 5.52066L25.033 -2.43281C25.9757 -0.257791 26.474 2.10737 26.474 4.51926H6.47403ZM6.68246 5.52066L-11.6681 13.4741C-10.4512 16.2817 -8.6937 18.7723 -6.54216 20.8285L7.276 6.36961L21.0942 -8.08924C22.7372 -6.51902 24.0913 -4.60543 25.033 -2.43281L6.68246 5.52066ZM7.276 6.36961L-6.54216 20.8285C-4.39254 22.8828 -1.88921 24.4671 0.802923 25.5328L8.16431 6.93685L15.5257 -11.6591C17.5534 -10.8564 19.4531 -9.65764 21.0942 -8.08924L7.276 6.36961ZM8.16431 6.93685L0.802923 25.5328C3.49388 26.5981 6.34877 27.136 9.21214 27.136L9.21214 7.13604V-12.864C11.3564 -12.864 13.4991 -12.4613 15.5257 -11.6591L8.16431 6.93685ZM9.21214 7.13604L9.21214 27.136C14.9576 27.136 20.6399 24.9633 24.9664 20.8285L11.1483 6.36961L-2.66989 -8.08924C0.629685 -11.2426 4.91911 -12.864 9.21214 -12.864V7.13604ZM11.1483 6.36961L24.9664 20.8285C29.3238 16.6642 31.9503 10.8176 31.9503 4.51926H11.9502H-8.04975C-8.04975 -0.391078 -6.00028 -4.90643 -2.66989 -8.08924L11.1483 6.36961ZM11.9502 4.51926H31.9503C31.9503 -1.77911 29.3238 -7.62563 24.9664 -11.7899L11.1483 2.66892L-2.66989 17.1278C-6.00028 13.945 -8.04975 9.4296 -8.04975 4.51926H11.9502ZM11.1483 2.66892L24.9664 -11.7899C20.6399 -15.9248 14.9576 -18.0975 9.21214 -18.0975L9.21214 1.90248V21.9025C4.91911 21.9025 0.629685 20.2811 -2.66989 17.1278L11.1483 2.66892ZM4.64862 4.51926H24.6486C24.6486 8.96692 22.7915 13.0385 19.8034 15.8942L5.98525 1.43535L-7.83292 -13.0235C-12.5326 -8.53203 -15.3514 -2.24177 -15.3514 4.51926H4.64862ZM5.98525 1.43535L19.8034 15.8942C16.8462 18.7204 13.021 20.158 9.21214 20.158V0.157959V-19.842C2.9826 -19.842 -3.16402 -17.4855 -7.83292 -13.0235L5.98525 1.43535ZM9.21214 0.157959V20.158C5.40324 20.158 1.57812 18.7204 -1.37913 15.8942L12.439 1.43535L26.2572 -13.0235C21.5883 -17.4855 15.4417 -19.842 9.21214 -19.842V0.157959ZM12.439 1.43535L-1.37913 15.8942C-4.36719 13.0385 -6.22434 8.96692 -6.22434 4.51926H13.7757H33.7757C33.7757 -2.24177 30.9569 -8.53203 26.2572 -13.0235L12.439 1.43535ZM13.7757 4.51926H-6.22434C-6.22434 0.0716043 -4.36719 -4.00002 -1.37913 -6.85568L12.439 7.60317L26.2572 22.062C30.9569 17.5706 33.7757 11.2803 33.7757 4.51926H13.7757ZM12.439 7.60317L-1.37913 -6.85568C1.57812 -9.68189 5.40324 -11.1194 9.21214 -11.1194V8.88056V28.8806C15.4417 28.8806 21.5883 26.524 26.2572 22.062L12.439 7.60317ZM9.21214 8.88056V-11.1194C13.021 -11.1194 16.8462 -9.68189 19.8034 -6.85568L5.98525 7.60317L-7.83292 22.062C-3.16402 26.524 2.9826 28.8806 9.21214 28.8806V8.88056ZM5.98525 7.60317L19.8034 -6.85568C22.7915 -4.00002 24.6486 0.0716043 24.6486 4.51926H4.64862H-15.3514C-15.3514 11.2803 -12.5326 17.5706 -7.83292 22.062L5.98525 7.60317ZM5.94344 11.2868L-5.62986 27.5981C-4.8899 28.1232 -3.97724 28.7113 -2.89982 29.2896L6.558 11.6671L16.0158 -5.95527C16.5992 -5.6422 17.0981 -5.32153 17.5167 -5.02446L5.94344 11.2868ZM6.558 11.6671L-2.94843 29.2634C-0.300581 30.6939 3.88989 32.3533 9.21092 32.3533V12.3533V-7.64668C12.305 -7.64668 14.6652 -6.68506 16.0644 -5.9291L6.558 11.6671ZM9.21092 12.3533V32.3533C14.5276 32.3533 18.7186 30.6966 21.3715 29.2634L11.8651 11.6671L2.35864 -5.9291C3.76293 -6.68777 6.12122 -7.64668 9.21092 -7.64668V12.3533ZM11.8651 11.6671L21.3229 29.2896C22.4003 28.7113 23.313 28.1232 24.0529 27.5981L12.4796 11.2868L0.906314 -5.02446C1.325 -5.32153 1.8239 -5.6422 2.40725 -5.95527L11.8651 11.6671ZM12.4796 11.2868L7.55282 30.6705C7.425 30.638 7.2969 30.6017 7.16896 30.5615L13.1599 11.4799L19.1508 -7.60174C18.5734 -7.78301 17.9918 -7.94804 17.4064 -8.09683L12.4796 11.2868ZM13.1599 11.4799L7.17551 30.5636L8.34377 30.9299L14.3281 11.8463L20.3125 -7.23744L19.1443 -7.60379L13.1599 11.4799ZM14.3281 11.8463L8.32649 30.9245C3.15687 29.2982 -1.41602 25.1084 -3.12909 19.1082L16.1024 13.6175L35.334 8.1268C33.1487 0.472852 27.2518 -5.05448 20.3298 -7.23201L14.3281 11.8463ZM16.1024 13.6175L-3.69044 16.4884L-3.20732 19.8192L16.5856 16.9484L36.3785 14.0776L35.8953 10.7467L16.1024 13.6175ZM16.5856 16.9484L-3.20952 19.804C-3.78824 15.7923 -3.09534 11.0702 -0.315012 6.81168C2.43483 2.59982 6.68357 -0.279369 11.4234 -1.35463L15.8481 18.1498L20.2728 37.6542C31.756 35.0492 37.8357 24.1792 36.3806 14.0928L16.5856 16.9484ZM15.8481 18.1498L11.3985 -1.34897C11.7205 -1.42244 11.0755 -1.23382 9.21214 -1.23382V18.7662V38.7662C13.7767 38.7662 17.4274 38.3035 20.2977 37.6485L15.8481 18.1498ZM9.21214 18.7662V-1.23382C7.34799 -1.23382 6.7018 -1.42261 7.02452 -1.34897L2.57496 18.1498L-1.8746 37.6485C0.996387 38.3037 4.64843 38.7662 9.21214 38.7662V18.7662ZM2.57496 18.1498L7.01029 -1.35221C11.7591 -0.27219 15.9982 2.61371 18.739 6.8117C21.5099 11.0558 22.2079 15.7622 21.6379 19.7667L1.8375 16.9484L-17.9629 14.1301C-19.393 24.1768 -13.3449 35.0399 -1.86037 37.6518L2.57496 18.1498ZM1.8375 16.9484L21.6304 19.8192L22.1135 16.4884L2.32062 13.6175L-17.4723 10.7467L-17.9554 14.0775L1.8375 16.9484ZM2.32062 13.6175L21.5233 19.2082C20.682 22.098 19.1315 24.6517 17.1006 26.6776L2.97542 12.5186L-11.1498 -1.64044C-13.8002 1.00367 -15.8007 4.31234 -16.8821 8.02686L2.32062 13.6175ZM2.97542 12.5186L17.1006 26.6776C15.0745 28.6989 12.6322 30.1373 10.0297 30.9458L4.09613 11.8463L-1.83739 -7.25331C-5.29174 -6.18018 -8.50408 -4.27983 -11.1498 -1.64044L2.97542 12.5186ZM4.09613 11.8463L10.0805 30.9299L11.2488 30.5636L5.26439 11.4799L-0.719987 -7.60379L-1.88825 -7.23744L4.09613 11.8463ZM5.26439 11.4799L11.2149 30.5742C11.1181 30.6043 11.0236 30.6311 10.9319 30.6547L5.94344 11.2868L0.955018 -8.08106C0.405714 -7.93958 -0.14147 -7.78411 -0.686105 -7.61438L5.26439 11.4799ZM6.80747 9.71096L20.5254 -4.84306L20.1712 -5.17685L6.45334 9.37717L-7.26455 23.9312L-6.91042 24.265L6.80747 9.71096ZM6.45334 9.37717L2.18005 -10.161L1.69084 -10.054L5.96413 9.48417L10.2374 29.0223L10.7266 28.9153L6.45334 9.37717ZM5.96413 9.48417L1.70366 -10.0568C0.679221 -9.83342 -0.33042 -9.56408 -1.32375 -9.2507L4.69365 9.82261L10.711 28.8959C10.5582 28.9441 10.3956 28.9878 10.2246 29.0251L5.96413 9.48417ZM4.69365 9.82261L-1.29071 -9.26109L-2.45897 -8.89474L3.52539 10.189L9.50975 29.2726L10.678 28.9063L4.69365 9.82261ZM3.52539 10.189L-2.40798 -8.91065C-6.22705 -7.72425 -9.76446 -5.60612 -12.6499 -2.6665L1.62317 11.3435L15.8962 25.3535C14.055 27.2292 11.8263 28.5531 9.45876 29.2886L3.52539 10.189ZM1.62317 11.3435L-12.6499 -2.6665C-15.5405 0.278347 -17.6825 3.95617 -18.781 8.06082L0.539023 13.2314L19.8591 18.402C19.1388 21.0935 17.7426 23.4724 15.8962 25.3535L1.62317 11.3435ZM0.539023 13.2314L-18.8099 8.16977L-18.822 8.21629L0.526854 13.2779L19.8758 18.3395L19.8879 18.293L0.539023 13.2314ZM0.526854 13.2779L-19.2669 10.4134L-19.7635 13.8443L0.030343 16.7088L19.8241 19.5733L20.3207 16.1424L0.526854 13.2779ZM0.030343 16.7088L-19.7634 13.8441C-21.2456 24.085 -15.3621 36.3748 -2.2815 39.3489L2.15268 19.8466L6.58686 0.344367C16.5473 2.60904 20.9144 12.0401 19.8241 19.5736L0.030343 16.7088ZM2.15268 19.8466L-2.29128 39.3467C0.720459 40.033 4.51086 40.5107 9.21092 40.5107V20.5107V0.510705C7.22269 0.510705 6.43254 0.309196 6.59664 0.346594L2.15268 19.8466ZM9.21092 20.5107V40.5107C13.9141 40.5107 17.6986 40.0326 20.6992 39.3513L16.2704 19.8478L11.8416 0.344311C11.9946 0.309566 11.1985 0.510705 9.21092 0.510705V20.5107ZM16.2704 19.8478L20.7184 39.3469C33.7654 36.3707 39.6743 24.1082 38.1874 13.8428L18.3939 16.71L-1.39948 19.5771C-2.4946 12.017 1.89559 2.61311 11.8224 0.348677L16.2704 19.8478ZM18.3939 16.71L38.1867 13.8386L37.689 10.4077L17.8962 13.2791L-1.8966 16.1505L-1.39887 19.5814L18.3939 16.71ZM17.8962 13.2791L37.2451 8.21746L37.2329 8.17094L17.884 13.2326L-1.46486 18.2942L-1.45269 18.3407L17.8962 13.2791ZM17.884 13.2326L37.2052 8.06608C36.1071 3.95936 33.9644 0.279669 31.0725 -2.66642L16.7996 11.3437L2.52673 25.3539C0.679569 23.4721 -0.717054 21.0919 -1.43713 18.399L17.884 13.2326ZM16.7996 11.3437L31.0725 -2.66642C28.1858 -5.60727 24.6466 -7.7259 20.8256 -8.91197L14.8965 10.189L8.96731 29.2899C6.59861 28.5546 4.36875 27.2305 2.52673 25.3539L16.7996 11.3437ZM14.8965 10.189L20.8865 -8.89296L19.7195 -9.25931L13.7294 9.82261L7.73937 28.9045L8.90641 29.2709L14.8965 10.189ZM13.7294 9.82261L19.7253 -9.25746C18.7348 -9.56872 17.7298 -9.83574 16.7117 -10.0573L12.4589 9.48533L8.20618 29.028C8.0432 28.9925 7.88511 28.9503 7.73351 28.9027L13.7294 9.82261ZM12.4589 9.48533L16.7765 -10.0431L16.2873 -10.1512L11.9697 9.37717L7.65213 28.9056L8.14134 29.0137L12.4589 9.48533ZM11.9697 9.37717L-1.74785 -5.17715L-2.10076 -4.84453L11.6168 9.70979L25.3344 24.2641L25.6873 23.9315L11.9697 9.37717ZM11.6168 9.70979L-2.20135 -4.74906L-2.20257 -4.74789L11.6156 9.71096L25.4338 24.1698L25.435 24.1686L11.6168 9.70979ZM11.6156 9.71096L-1.51713 -5.3732C-1.17165 -5.67398 -0.816131 -5.9598 -0.451668 -6.23036L11.4696 9.82842L23.3908 25.8872C23.8558 25.542 24.3087 25.1778 24.7483 24.7951L11.6156 9.71096ZM11.4696 9.82842L-0.62546 -6.09987C0.0819627 -6.63705 0.825553 -7.11092 1.59615 -7.51981L10.9706 10.1471L20.3451 27.814C21.466 27.2192 22.5434 26.5321 23.5646 25.7567L11.4696 9.82842ZM10.9706 10.1471L1.30091 -7.35997C3.69043 -8.67977 6.33176 -9.35895 8.9788 -9.38984L9.21214 10.6088L9.44548 30.6074C13.3283 30.5621 17.1808 29.565 20.6403 27.6541L10.9706 10.1471ZM9.21214 10.6088L9.44548 -9.38984C12.0925 -9.35895 14.7339 -8.67977 17.1234 -7.35997L7.45366 10.1471L-2.21604 27.6541C1.24351 29.565 5.09597 30.5621 8.9788 30.6074L9.21214 10.6088ZM7.45366 10.1471L16.9539 -7.45252C17.8572 -6.9649 18.7539 -6.36828 19.6154 -5.64989L6.80747 9.71096L-6.00051 25.0718C-4.741 26.122 -3.40969 27.0109 -2.04654 27.7467L7.45366 10.1471Z" fill="white" mask="url(#path-1-inside-1_467_2076)"/>
</svg>
