<svg width="27" height="27" viewBox="0 0 27 27" fill="none" xmlns="http://www.w3.org/2000/svg">
<path d="M12.8196 1.99021C13.0747 1.47999 13.4473 1.0377 13.9069 0.699765C14.3664 0.361831 14.8997 0.137934 15.4627 0.046525C16.0258 -0.0448844 16.6025 -0.00118971 17.1453 0.174008C17.6882 0.349207 18.1816 0.650893 18.585 1.05421L25.8876 8.35681C26.2909 8.76019 26.5926 9.25363 26.7678 9.79648C26.943 10.3393 26.9867 10.916 26.8953 11.4791C26.8039 12.0421 26.58 12.5754 26.242 13.0349C25.9041 13.4945 25.4618 13.8671 24.9516 14.1222L18.7272 17.2362C18.1359 17.5317 17.6734 18.0338 17.4276 18.6474L14.8428 25.1094C14.7323 25.3861 14.5548 25.6311 14.3262 25.8223C14.0977 26.0136 13.8252 26.1451 13.5333 26.205C13.2414 26.265 12.9392 26.2515 12.6538 26.1658C12.3683 26.0802 12.1086 25.925 11.898 25.7142L7.2 21.0162L1.2726 26.9418H0V25.6692L5.9274 19.7436L1.2294 15.0456C1.01857 14.8351 0.863303 14.5755 0.777516 14.2902C0.691729 14.0049 0.678109 13.7027 0.737878 13.4108C0.797646 13.1189 0.928935 12.8465 1.11997 12.6178C1.311 12.3892 1.55579 12.2115 1.8324 12.1008L8.2944 9.51601C8.9084 9.27098 9.41116 8.8092 9.7074 8.21821L12.8196 1.99021ZM17.3124 2.32681C17.1107 2.12533 16.864 1.97465 16.5927 1.88716C16.3214 1.79967 16.0332 1.77788 15.7518 1.82358C15.4704 1.86928 15.2039 1.98116 14.9742 2.15001C14.7445 2.31887 14.5582 2.53986 14.4306 2.79481L11.3166 9.02101C10.8239 10.0065 9.98684 10.7769 8.964 11.1864L2.502 13.7712L13.1706 24.4416L15.7554 17.9796C16.1649 16.9558 16.9361 16.118 17.9226 15.6252L24.147 12.5112C24.4016 12.3836 24.6223 12.1973 24.7909 11.9678C24.9596 11.7382 25.0713 11.4719 25.117 11.1908C25.1627 10.9097 25.141 10.6217 25.0537 10.3506C24.9665 10.0795 24.8161 9.83291 24.615 9.63121L17.3124 2.32681Z" fill="#969696"/>
</svg>
