<svg width="12" height="9" viewBox="0 0 12 9" fill="none" xmlns="http://www.w3.org/2000/svg">
<path fill-rule="evenodd" clip-rule="evenodd" d="M0 4.5C0 4.31081 0.0702419 4.12937 0.195272 3.99559C0.320302 3.86182 0.48988 3.78666 0.666699 3.78666H9.72492L7.30702 1.19963C7.18926 1.06441 7.12515 0.885554 7.12819 0.700752C7.13124 0.515949 7.20121 0.339627 7.32336 0.208931C7.44551 0.0782359 7.61031 0.00337176 7.78303 0.000111135C7.95575 -0.00314949 8.12291 0.0654479 8.24929 0.191452L11.805 3.99591C11.9299 4.12966 12 4.31097 12 4.5C12 4.68903 11.9299 4.87034 11.805 5.00409L8.24929 8.80855C8.12291 8.93455 7.95575 9.00315 7.78303 8.99989C7.61031 8.99663 7.44551 8.92176 7.32336 8.79107C7.20121 8.66037 7.13124 8.48405 7.12819 8.29925C7.12515 8.11444 7.18926 7.93559 7.30702 7.80037L9.72492 5.21334H0.666699C0.48988 5.21334 0.320302 5.13818 0.195272 5.0044C0.0702419 4.87063 0 4.68919 0 4.5Z" fill="#5061FF"/>
</svg>
