<svg width="20" height="26" viewBox="0 0 20 26" fill="none" xmlns="http://www.w3.org/2000/svg">
<path d="M0 3.84086C0 2.8222 0.428012 1.84526 1.18988 1.12496C1.95175 0.404661 2.98506 0 4.0625 0H15.9375C16.471 0 16.9993 0.0993468 17.4922 0.292368C17.985 0.48539 18.4329 0.768306 18.8101 1.12496C19.1874 1.48162 19.4866 1.90503 19.6908 2.37103C19.8949 2.83702 20 3.33647 20 3.84086V25.1133C20.0001 25.2783 19.9514 25.4401 19.8595 25.5804C19.7676 25.7207 19.6361 25.8339 19.4798 25.9073C19.3235 25.9808 19.1486 26.0115 18.9749 25.9961C18.8011 25.9807 18.6353 25.9197 18.4963 25.8201L10 19.7243L1.50375 25.8189C1.36474 25.9185 1.19909 25.9794 1.02543 25.9949C0.851773 26.0104 0.676996 25.9797 0.520751 25.9064C0.364507 25.8331 0.232993 25.7201 0.140997 25.5799C0.0490011 25.4398 0.000171626 25.2782 0 25.1133V3.84086ZM4.0625 1.77271C3.48234 1.77271 2.92594 1.9906 2.5157 2.37846C2.10547 2.76631 1.875 3.29235 1.875 3.84086V23.3288L9.43375 17.9079C9.5967 17.7911 9.79555 17.7279 10 17.7279C10.2045 17.7279 10.4033 17.7911 10.5662 17.9079L18.125 23.3288V3.84086C18.125 3.29235 17.8945 2.76631 17.4843 2.37846C17.0741 1.9906 16.5177 1.77271 15.9375 1.77271H4.0625Z" fill="#969696"/>
</svg>
