<svg width="18" height="21" viewBox="0 0 18 21" fill="none" xmlns="http://www.w3.org/2000/svg">
<path d="M2.46155 3.92285L3.37501 18.5382C3.4184 19.3827 4.0327 19.9998 4.83655 19.9998H13.2404C14.0474 19.9998 14.6503 19.3827 14.7019 18.5382L15.6154 3.92285" stroke="#5061FF" stroke-linecap="round" stroke-linejoin="round"/>
<path d="M1 3.92285H17.0769" stroke="#5061FF" stroke-miterlimit="10" stroke-linecap="round"/>
<path d="M6.11538 3.92308V2.09616C6.11496 1.95209 6.14303 1.80936 6.19796 1.67618C6.2529 1.543 6.33363 1.42199 6.4355 1.32012C6.53737 1.21825 6.65838 1.13752 6.79156 1.08258C6.92474 1.02765 7.06747 0.999583 7.21154 1H10.8654C11.0095 0.999583 11.1522 1.02765 11.2854 1.08258C11.4185 1.13752 11.5396 1.21825 11.6414 1.32012C11.7433 1.42199 11.824 1.543 11.879 1.67618C11.9339 1.80936 11.962 1.95209 11.9615 2.09616V3.92308M9.03846 6.84616V17.0769M5.75 6.84616L6.11538 17.0769M12.3269 6.84616L11.9615 17.0769" stroke="#5061FF" stroke-linecap="round" stroke-linejoin="round"/>
</svg>
