<svg width="18" height="16" viewBox="0 0 18 16" fill="none" xmlns="http://www.w3.org/2000/svg">
<path d="M9 3.625C9 3.625 9 3.625 8.32444 2.75C7.54222 1.735 6.38667 1 5 1C2.78667 1 1 2.75875 1 4.9375C1 5.75125 1.24889 6.50375 1.67556 7.125C2.39556 8.18375 9 15 9 15M9 3.625C9 3.625 9 3.625 9.67556 2.75C10.4578 1.735 11.6133 1 13 1C15.2133 1 17 2.75875 17 4.9375C17 5.75125 16.7511 6.50375 16.3244 7.125C15.6044 8.18375 9 15 9 15" stroke="black" stroke-width="1.5" stroke-linecap="round" stroke-linejoin="round"/>
</svg>
