<svg width="39" height="27" viewBox="0 0 39 27" fill="none" xmlns="http://www.w3.org/2000/svg">
<path d="M12.675 13.5C16.4453 13.5 19.5 10.4789 19.5 6.75C19.5 3.02111 16.4453 0 12.675 0C8.90468 0 5.85 3.02111 5.85 6.75C5.85 10.4789 8.90468 13.5 12.675 13.5ZM34.125 10.125C34.125 13.0555 31.7255 15.4286 28.7625 15.4286C27.3403 15.4286 25.9763 14.8698 24.9706 13.8752C23.965 12.8806 23.4 11.5316 23.4 10.125C23.4 7.19454 25.7995 4.82143 28.7625 4.82143C31.7255 4.82143 34.125 7.19454 34.125 10.125ZM12.675 15.4286C15.3407 15.4286 19.6784 16.2492 22.5235 17.8827C23.6857 19.0524 24.375 20.3281 24.375 21.6V27H0V21.6C0 17.496 8.44448 15.4286 12.675 15.4286ZM39 27H26.325V21.6C26.325 20.2346 25.8268 18.9771 25.0341 17.8557C26.5366 17.524 28.0157 17.3571 29.1457 17.3571C32.7795 17.3571 39 19.0803 39 22.4997V27Z" fill="#5061FF"/>
</svg>
