<svg width="27" height="27" viewBox="0 0 27 27" fill="none" xmlns="http://www.w3.org/2000/svg">
<path d="M10.812 10.4247C10.812 9.91268 11.0154 9.42159 11.3775 9.05951C11.7396 8.69743 12.2307 8.49402 12.7427 8.49402C13.2548 8.49402 13.7459 8.69743 14.1079 9.05951C14.47 9.42159 14.6734 9.91268 14.6734 10.4247C14.6734 10.9368 14.47 11.4279 14.1079 11.79C13.7459 12.152 13.2548 12.3554 12.7427 12.3554C12.2307 12.3554 11.7396 12.152 11.3775 11.79C11.0154 11.4279 10.812 10.9368 10.812 10.4247Z" fill="#5061FF"/>
<path d="M1.83877e-08 12.7416C0.000176321 10.694 0.493812 8.6765 1.4391 6.8601C2.38439 5.0437 3.75349 3.48185 5.43046 2.30683C7.10743 1.13181 9.04286 0.37822 11.0729 0.109888C13.1029 -0.158444 15.1676 0.0663823 17.0923 0.765327C19.017 1.46427 20.7449 2.61675 22.1296 4.12516C23.5144 5.63356 24.5153 7.45347 25.0475 9.43075C25.5797 11.408 25.6276 13.4845 25.187 15.4842C24.7465 17.4839 23.8306 19.348 22.5168 20.9186L26.6485 25.0518C26.8531 25.2714 26.9645 25.5619 26.9592 25.862C26.9539 26.1621 26.8323 26.4485 26.6201 26.6607C26.4079 26.8729 26.1215 26.9945 25.8214 26.9998C25.5213 27.0051 25.2308 26.8937 25.0112 26.6891L20.8749 22.5527C19.0124 24.0966 16.7489 25.0784 14.349 25.3834C11.9491 25.6883 9.51193 25.3038 7.32249 24.2748C5.13306 23.2457 3.28178 21.6147 1.98509 19.5724C0.688397 17.5301 -0.000129919 15.1608 1.83877e-08 12.7416ZM12.7427 6.17719C11.9149 6.17713 11.1052 6.41894 10.413 6.8729C9.72084 7.32685 9.17639 7.97316 8.84658 8.73237C8.51677 9.49159 8.41598 10.3306 8.5566 11.1464C8.69723 11.9621 9.07314 12.719 9.63812 13.3239C9.34362 13.4928 9.0656 13.6895 8.80405 13.9139C7.67034 14.8855 6.95057 16.3281 6.95057 18.1476C6.95057 18.4548 7.07262 18.7495 7.28986 18.9667C7.50711 19.184 7.80176 19.306 8.109 19.306C8.41623 19.306 8.71088 19.184 8.92813 18.9667C9.14538 18.7495 9.26743 18.4548 9.26743 18.1476C9.26743 16.9861 9.70608 16.1922 10.3116 15.6717C10.9417 15.1311 11.8206 14.833 12.7427 14.833C13.6648 14.833 14.5437 15.1311 15.1739 15.6717C15.7793 16.1922 16.218 16.9846 16.218 18.1476C16.218 18.4548 16.34 18.7495 16.5573 18.9667C16.7745 19.184 17.0692 19.306 17.3764 19.306C17.6837 19.306 17.9783 19.184 18.1956 18.9667C18.4128 18.7495 18.5349 18.4548 18.5349 18.1476C18.5349 16.3281 17.8151 14.8855 16.6814 13.9139C16.422 13.6921 16.1428 13.4946 15.8473 13.3239C16.4123 12.719 16.7882 11.9621 16.9288 11.1464C17.0694 10.3306 16.9687 9.49159 16.6388 8.73237C16.309 7.97316 15.7646 7.32685 15.0724 6.8729C14.3802 6.41894 13.5705 6.17713 12.7427 6.17719Z" fill="#5061FF"/>
</svg>
