<svg width="27" height="27" viewBox="0 0 27 27" fill="none" xmlns="http://www.w3.org/2000/svg">
<path d="M25.8481 8.05601L18.944 1.15194C18.5032 0.711226 17.9639 0.381569 17.3707 0.190131C16.7775 -0.00130675 16.1473 -0.0490464 15.532 0.0508462C14.9167 0.150739 14.334 0.395404 13.8318 0.764682C13.3296 1.13396 12.9224 1.61728 12.6436 2.17482L9.16012 9.14183C9.0348 9.39304 8.81601 9.58512 8.55069 9.67688L2.59081 11.7369C2.30433 11.8359 2.04771 12.0061 1.84505 12.2315C1.6424 12.4569 1.50035 12.7301 1.43227 13.0255C1.36419 13.3208 1.3723 13.6286 1.45584 13.92C1.53938 14.2114 1.69561 14.4767 1.90985 14.6911L6.35043 19.1317L0 25.4836V27H1.51643L7.86829 20.6481L12.3103 25.0902C12.5247 25.3044 12.7901 25.4606 13.0814 25.5442C13.3728 25.6277 13.6806 25.6358 13.976 25.5677C14.2713 25.4996 14.5445 25.3576 14.7699 25.1549C14.9953 24.9523 15.1655 24.6957 15.2645 24.4092L17.3246 18.4493C17.416 18.1842 17.6075 17.9655 17.8582 17.8399L24.8252 14.3564C25.3827 14.0776 25.866 13.6704 26.2353 13.1682C26.6046 12.666 26.8493 12.0833 26.9492 11.468C27.049 10.8527 27.0013 10.2225 26.8099 9.62928C26.6184 9.03606 26.2888 8.49683 25.8481 8.05601Z" fill="#5773FF"/>
</svg>
