<svg width="27" height="28" viewBox="0 0 27 28" fill="none" xmlns="http://www.w3.org/2000/svg">
<path fill-rule="evenodd" clip-rule="evenodd" d="M13.5 1.48678e-10C15.2728 -8.32963e-06 17.0283 0.349994 18.6662 1.03002C20.3041 1.71005 21.7923 2.70679 23.0459 3.96333C24.2995 5.21987 25.2939 6.7116 25.9724 8.35335C26.6508 9.9951 27 11.7547 27 13.5317C27 21.0051 20.9558 27.0635 13.5 27.0635C6.04418 27.0635 0 21.0051 0 13.5317C0 6.0584 6.04418 1.48678e-10 13.5 1.48678e-10ZM14.85 14.885H12.15C8.80779 14.885 5.93843 16.9139 4.70084 19.8102C6.65902 22.5625 9.87041 24.3572 13.5 24.3572C17.1295 24.3572 20.3409 22.5625 22.2992 19.81C21.0616 16.9139 18.1922 14.885 14.85 14.885ZM13.5 4.05953C11.2632 4.05953 9.44997 5.87705 9.44997 8.11905C9.44997 10.3611 11.2632 12.1786 13.5 12.1786C15.7367 12.1786 17.55 10.3611 17.55 8.11905C17.55 5.87705 15.7368 4.05953 13.5 4.05953Z" fill="#5061FF"/>
</svg>
