<svg width="25" height="27" viewBox="0 0 25 27" fill="none" xmlns="http://www.w3.org/2000/svg">
<path d="M0 25.245V9.99096C0 9.5417 0.102381 9.11641 0.307143 8.71511C0.511905 8.31381 0.794047 7.9833 1.15357 7.72356L10.7696 0.566852C11.2732 0.188951 11.8482 0 12.4946 0C13.1411 0 13.7196 0.188951 14.2304 0.566852L23.8464 7.72181C24.2071 7.98154 24.4893 8.31264 24.6929 8.71511C24.8976 9.11641 25 9.5417 25 9.99096V25.245C25 25.7154 24.822 26.1254 24.4661 26.4753C24.1101 26.8251 23.6929 27 23.2143 27H17.1714C16.7619 27 16.419 26.8643 16.1429 26.5928C15.8667 26.3202 15.7286 25.9833 15.7286 25.582V17.2126C15.7286 16.8113 15.5905 16.4749 15.3143 16.2035C15.0369 15.9309 14.694 15.7946 14.2857 15.7946H10.7143C10.306 15.7946 9.96369 15.9309 9.6875 16.2035C9.41012 16.4749 9.27143 16.8113 9.27143 17.2126V25.5838C9.27143 25.9851 9.13333 26.3214 8.85714 26.5928C8.58095 26.8643 8.23869 27 7.83036 27H1.78571C1.30714 27 0.889881 26.8251 0.533928 26.4753C0.177976 26.1254 0 25.7154 0 25.245Z" fill="#5061FF"/>
</svg>
