<svg width="29" height="29" viewBox="0 0 29 29" fill="none" xmlns="http://www.w3.org/2000/svg">
<path d="M18.7188 19.5624C18.7188 13.0469 8.59375 13.0469 8.59375 19.5624" stroke="#969696" stroke-width="2" stroke-linecap="round" stroke-linejoin="round"/>
<path d="M13.6562 14.5C14.5514 14.5 15.4098 14.1444 16.0427 13.5115C16.6757 12.8785 17.0312 12.0201 17.0312 11.125C17.0312 10.2299 16.6757 9.37145 16.0427 8.73852C15.4098 8.10558 14.5514 7.75 13.6562 7.75C12.7611 7.75 11.9027 8.10558 11.2698 8.73852C10.6368 9.37145 10.2812 10.2299 10.2812 11.125C10.2812 12.0201 10.6368 12.8785 11.2698 13.5115C11.9027 14.1444 12.7611 14.5 13.6562 14.5Z" stroke="#969696" stroke-width="2" stroke-linecap="round" stroke-linejoin="round"/>
<path d="M22.7569 22.8025L27.9544 28M26.3125 13.6562C26.3125 17.0129 24.9791 20.2321 22.6056 22.6056C20.2321 24.9791 17.0129 26.3125 13.6562 26.3125C10.2996 26.3125 7.08044 24.9791 4.70693 22.6056C2.33342 20.2321 1 17.0129 1 13.6562C1 10.2996 2.33342 7.08044 4.70693 4.70693C7.08044 2.33342 10.2996 1 13.6562 1C17.0129 1 20.2321 2.33342 22.6056 4.70693C24.9791 7.08044 26.3125 10.2996 26.3125 13.6562Z" stroke="#969696" stroke-width="2" stroke-linecap="round" stroke-linejoin="round"/>
</svg>
